<svg width="165" height="227" viewBox="0 0 165 227" fill="none" xmlns="http://www.w3.org/2000/svg">
<path d="M155.806 5.83685C159.015 -2.43274 171.187 -0.721991 171.993 8.11183L178.609 80.6678C179.093 85.9757 184.337 89.4948 189.432 87.9316L260.513 66.1248C269.069 63.5002 275.245 74.2964 268.647 80.3414L215.388 129.132C211.338 132.842 211.882 139.377 216.491 142.366L277.777 182.113C285.32 187.005 280.936 198.727 272.034 197.469L198.775 187.115C193.408 186.357 188.74 190.807 189.241 196.204L195.91 268.033C196.733 276.89 185.022 280.776 180.386 273.185L141.893 210.16C139.136 205.646 132.942 204.776 129.047 208.355L74.6738 258.328C68.1245 264.347 57.9393 257.384 61.1711 249.096L87.3807 181.889C89.3501 176.839 86.0892 171.274 80.7211 170.524L7.44626 160.284C-1.45755 159.04 -2.4406 146.563 6.1585 143.939L76.0266 122.625C81.2799 121.022 83.6049 114.89 80.7345 110.207L42.987 48.627C38.3102 40.9974 47.2234 32.3218 54.7239 37.203L117.041 77.7576C121.508 80.6648 127.518 78.7273 129.447 73.7585L155.806 5.83685Z" fill="#8FB1BE"/>
</svg>
