<svg width="188" height="249" viewBox="0 0 188 249" fill="none" xmlns="http://www.w3.org/2000/svg">
<path d="M189.109 2.04341C189.683 0.400718 192.1 0.74033 192.198 2.47748L197.292 92.283C197.367 93.5922 198.904 94.2538 199.906 93.4075L269.502 34.6068C270.835 33.4804 272.747 35.0138 271.936 36.5596L230.165 116.239C229.549 117.415 230.559 118.783 231.864 118.541L322.571 101.662C324.297 101.341 325.193 103.643 323.704 104.574L246.424 152.874C245.285 153.586 245.487 155.302 246.761 155.73L334.227 185.116C335.896 185.677 335.551 188.133 333.792 188.212L241.614 192.351C240.272 192.411 239.605 194.005 240.503 195.003L301.476 262.734C302.651 264.039 301.155 266.005 299.584 265.22L217.043 223.993C215.856 223.4 214.507 224.437 214.776 225.737L232.967 313.844C233.32 315.553 231.059 316.5 230.088 315.05L179.396 239.344C178.666 238.254 177.006 238.467 176.574 239.705L146.923 324.627C146.349 326.27 143.933 325.93 143.834 324.193L138.74 234.387C138.666 233.078 137.128 232.417 136.126 233.263L66.5303 292.064C65.1971 293.19 63.2855 291.657 64.0959 290.111L105.868 210.431C106.484 209.256 105.473 207.887 104.168 208.13L13.4617 225.008C11.7355 225.329 10.8392 223.027 12.3282 222.097L89.6081 173.796C90.7471 173.084 90.545 171.368 89.2718 170.94L1.80538 141.554C0.136101 140.993 0.481249 138.538 2.24044 138.459L94.4185 134.32C95.7603 134.259 96.4275 132.666 95.5289 131.667L34.5561 63.9366C33.3813 62.6316 34.8774 60.6658 36.4483 61.4504L118.989 102.677C120.176 103.27 121.525 102.233 121.257 100.933L103.066 12.8264C102.713 11.117 104.973 10.1699 105.944 11.6203L156.636 87.3264C157.366 88.4159 159.026 88.2038 159.459 86.9659L189.109 2.04341Z" fill="#FCC560"/>
</svg>
