<svg xmlns="http://www.w3.org/2000/svg" fill="none" viewBox="35.81422924901186 0 175.57707509881422 282.528" style="max-height: 500px" width="175.57707509881422" height="282.528">
<circle fill="#979797" transform="matrix(-1 0 0 1 200.56 0)" r="6.54" cy="6.54" cx="6.54"/>
<circle fill="#979797" transform="matrix(-1 0 0 1 161.32 0)" r="6.54" cy="6.54" cx="6.54"/>
<circle fill="#979797" transform="matrix(-1 0 0 1 122.08 0)" r="6.54" cy="6.54" cx="6.54"/>
<circle fill="#979797" transform="matrix(-1 0 0 1 82.84 0)" r="6.54" cy="6.54" cx="6.54"/>
<circle fill="#979797" transform="matrix(-1 0 0 1 43.6 0)" r="6.54" cy="6.54" cx="6.54"/>
<g clip-path="url(#clip0_7_2)">
<circle fill="#979797" transform="matrix(-1 0 0 1 200.56 39.2397)" r="6.54" cy="6.54" cx="6.54"/>
<circle fill="#979797" transform="matrix(-1 0 0 1 161.32 39.2397)" r="6.54" cy="6.54" cx="6.54"/>
<circle fill="#979797" transform="matrix(-1 0 0 1 122.08 39.2397)" r="6.54" cy="6.54" cx="6.54"/>
<circle fill="#979797" transform="matrix(-1 0 0 1 82.84 39.2397)" r="6.54" cy="6.54" cx="6.54"/>
<circle fill="#979797" transform="matrix(-1 0 0 1 43.6 39.2397)" r="6.54" cy="6.54" cx="6.54"/>
</g>
<g clip-path="url(#clip1_7_2)">
<circle fill="#979797" transform="matrix(-1 0 0 1 200.56 78.48)" r="6.54" cy="6.54" cx="6.54"/>
<circle fill="#979797" transform="matrix(-1 0 0 1 161.32 78.48)" r="6.54" cy="6.54" cx="6.54"/>
<circle fill="#979797" transform="matrix(-1 0 0 1 122.08 78.48)" r="6.54" cy="6.54" cx="6.54"/>
<circle fill="#979797" transform="matrix(-1 0 0 1 82.84 78.48)" r="6.54" cy="6.54" cx="6.54"/>
<circle fill="#979797" transform="matrix(-1 0 0 1 43.6 78.48)" r="6.54" cy="6.54" cx="6.54"/>
</g>
<g clip-path="url(#clip2_7_2)">
<circle fill="#979797" transform="matrix(-1 0 0 1 200.56 117.72)" r="6.54" cy="6.54" cx="6.54"/>
<circle fill="#979797" transform="matrix(-1 0 0 1 161.32 117.72)" r="6.54" cy="6.54" cx="6.54"/>
<circle fill="#979797" transform="matrix(-1 0 0 1 122.08 117.72)" r="6.54" cy="6.54" cx="6.54"/>
<circle fill="#979797" transform="matrix(-1 0 0 1 82.84 117.72)" r="6.54" cy="6.54" cx="6.54"/>
<circle fill="#979797" transform="matrix(-1 0 0 1 43.6 117.72)" r="6.54" cy="6.54" cx="6.54"/>
</g>
<g clip-path="url(#clip3_7_2)">
<circle fill="#979797" transform="matrix(-1 0 0 1 200.56 156.96)" r="6.54" cy="6.54" cx="6.54"/>
<circle fill="#979797" transform="matrix(-1 0 0 1 161.32 156.96)" r="6.54" cy="6.54" cx="6.54"/>
<circle fill="#979797" transform="matrix(-1 0 0 1 122.08 156.96)" r="6.54" cy="6.54" cx="6.54"/>
<circle fill="#979797" transform="matrix(-1 0 0 1 82.84 156.96)" r="6.54" cy="6.54" cx="6.54"/>
<circle fill="#979797" transform="matrix(-1 0 0 1 43.6 156.96)" r="6.54" cy="6.54" cx="6.54"/>
</g>
<g clip-path="url(#clip4_7_2)">
<circle fill="#979797" transform="matrix(-1 0 0 1 200.56 196.2)" r="6.54" cy="6.54" cx="6.54"/>
<circle fill="#979797" transform="matrix(-1 0 0 1 161.32 196.2)" r="6.54" cy="6.54" cx="6.54"/>
<circle fill="#979797" transform="matrix(-1 0 0 1 122.08 196.2)" r="6.54" cy="6.54" cx="6.54"/>
<circle fill="#979797" transform="matrix(-1 0 0 1 82.84 196.2)" r="6.54" cy="6.54" cx="6.54"/>
<circle fill="#979797" transform="matrix(-1 0 0 1 43.6 196.2)" r="6.54" cy="6.54" cx="6.54"/>
</g>
<g clip-path="url(#clip5_7_2)">
<circle fill="#979797" transform="matrix(-1 0 0 1 200.56 235.44)" r="6.54" cy="6.54" cx="6.54" opacity="0.75"/>
<circle fill="#979797" transform="matrix(-1 0 0 1 161.32 235.44)" r="6.54" cy="6.54" cx="6.54" opacity="0.75"/>
<circle fill="#979797" transform="matrix(-1 0 0 1 122.08 235.44)" r="6.54" cy="6.54" cx="6.54"/>
<circle fill="#979797" transform="matrix(-1 0 0 1 82.84 235.44)" r="6.54" cy="6.54" cx="6.54"/>
<circle fill="#979797" transform="matrix(-1 0 0 1 43.6 235.44)" r="6.54" cy="6.54" cx="6.54"/>
</g>
<g clip-path="url(#clip6_7_2)">
<circle fill="#979797" transform="matrix(-1 0 0 1 200.56 274.68)" r="6.54" cy="6.54" cx="6.54" opacity="0.5"/>
<circle fill="#979797" transform="matrix(-1 0 0 1 161.32 274.68)" r="6.54" cy="6.54" cx="6.54" opacity="0.75"/>
<circle fill="#979797" transform="matrix(-1 0 0 1 122.08 274.68)" r="6.54" cy="6.54" cx="6.54"/>
<circle fill="#979797" transform="matrix(-1 0 0 1 82.84 274.68)" r="6.54" cy="6.54" cx="6.54"/>
<circle fill="#979797" transform="matrix(-1 0 0 1 43.6 274.68)" r="6.54" cy="6.54" cx="6.54"/>
</g>
<g clip-path="url(#clip7_7_2)">
<circle fill="#979797" transform="matrix(-1 0 0 1 200.56 313.92)" r="6.54" cy="6.54" cx="6.54" opacity="0.5"/>
<circle fill="#979797" transform="matrix(-1 0 0 1 161.32 313.92)" r="6.54" cy="6.54" cx="6.54" opacity="0.75"/>
<circle fill="#979797" transform="matrix(-1 0 0 1 122.08 313.92)" r="6.54" cy="6.54" cx="6.54"/>
<circle fill="#979797" transform="matrix(-1 0 0 1 82.84 313.92)" r="6.54" cy="6.54" cx="6.54"/>
<circle fill="#979797" transform="matrix(-1 0 0 1 43.6 313.92)" r="6.54" cy="6.54" cx="6.54"/>
</g>
<g clip-path="url(#clip8_7_2)">
<circle fill="#979797" transform="matrix(-1 0 0 1 200.56 353.16)" r="6.54" cy="6.54" cx="6.54" opacity="0.5"/>
<circle fill="#979797" transform="matrix(-1 0 0 1 161.32 353.16)" r="6.54" cy="6.54" cx="6.54" opacity="0.75"/>
<circle fill="#979797" transform="matrix(-1 0 0 1 122.08 353.16)" r="6.54" cy="6.54" cx="6.54"/>
<circle fill="#979797" transform="matrix(-1 0 0 1 82.84 353.16)" r="6.54" cy="6.54" cx="6.54"/>
<circle fill="#979797" transform="matrix(-1 0 0 1 43.6 353.16)" r="6.54" cy="6.54" cx="6.54"/>
</g>
<g clip-path="url(#clip9_7_2)">
<circle fill="#979797" transform="matrix(-1 0 0 1 200.56 392.4)" r="6.54" cy="6.54" cx="6.54" opacity="0.5"/>
<circle fill="#979797" transform="matrix(-1 0 0 1 161.32 392.4)" r="6.54" cy="6.54" cx="6.54" opacity="0.75"/>
<circle fill="#979797" transform="matrix(-1 0 0 1 122.08 392.4)" r="6.54" cy="6.54" cx="6.54"/>
<circle fill="#979797" transform="matrix(-1 0 0 1 82.84 392.4)" r="6.54" cy="6.54" cx="6.54"/>
<circle fill="#979797" transform="matrix(-1 0 0 1 43.6 392.4)" r="6.54" cy="6.54" cx="6.54"/>
</g>
<defs>
<clipPath id="clip0_7_2">
<rect transform="matrix(-1 0 0 1 436 39.24)" fill="white" height="39.24" width="436"/>
</clipPath>
<clipPath id="clip1_7_2">
<rect transform="matrix(-1 0 0 1 436 78.48)" fill="white" height="39.24" width="436"/>
</clipPath>
<clipPath id="clip2_7_2">
<rect transform="matrix(-1 0 0 1 436 117.72)" fill="white" height="39.24" width="436"/>
</clipPath>
<clipPath id="clip3_7_2">
<rect transform="matrix(-1 0 0 1 436 156.96)" fill="white" height="39.24" width="436"/>
</clipPath>
<clipPath id="clip4_7_2">
<rect transform="matrix(-1 0 0 1 436 196.2)" fill="white" height="39.24" width="436"/>
</clipPath>
<clipPath id="clip5_7_2">
<rect transform="matrix(-1 0 0 1 436 235.44)" fill="white" height="39.24" width="436"/>
</clipPath>
<clipPath id="clip6_7_2">
<rect transform="matrix(-1 0 0 1 436 274.68)" fill="white" height="39.24" width="436"/>
</clipPath>
<clipPath id="clip7_7_2">
<rect transform="matrix(-1 0 0 1 436 313.92)" fill="white" height="39.24" width="436"/>
</clipPath>
<clipPath id="clip8_7_2">
<rect transform="matrix(-1 0 0 1 436 353.16)" fill="white" height="39.24" width="436"/>
</clipPath>
<clipPath id="clip9_7_2">
<rect transform="matrix(-1 0 0 1 436 392.4)" fill="white" height="39.24" width="436"/>
</clipPath>
</defs>
</svg>