<svg width="221" height="436" viewBox="0 0 221 436" fill="none" xmlns="http://www.w3.org/2000/svg">
<circle cx="6.54" cy="6.54" r="6.54" transform="matrix(-1 0 0 1 200.56 0)" fill="#979797"/>
<circle cx="6.54" cy="6.54" r="6.54" transform="matrix(-1 0 0 1 161.32 0)" fill="#979797"/>
<circle cx="6.54" cy="6.54" r="6.54" transform="matrix(-1 0 0 1 122.08 0)" fill="#979797"/>
<circle cx="6.54" cy="6.54" r="6.54" transform="matrix(-1 0 0 1 82.84 0)" fill="#979797"/>
<circle cx="6.54" cy="6.54" r="6.54" transform="matrix(-1 0 0 1 43.6 0)" fill="#979797"/>
<g clip-path="url(#clip0_7_2)">
<circle cx="6.54" cy="6.54" r="6.54" transform="matrix(-1 0 0 1 200.56 39.2397)" fill="#979797"/>
<circle cx="6.54" cy="6.54" r="6.54" transform="matrix(-1 0 0 1 161.32 39.2397)" fill="#979797"/>
<circle cx="6.54" cy="6.54" r="6.54" transform="matrix(-1 0 0 1 122.08 39.2397)" fill="#979797"/>
<circle cx="6.54" cy="6.54" r="6.54" transform="matrix(-1 0 0 1 82.84 39.2397)" fill="#979797"/>
<circle cx="6.54" cy="6.54" r="6.54" transform="matrix(-1 0 0 1 43.6 39.2397)" fill="#979797"/>
</g>
<g clip-path="url(#clip1_7_2)">
<circle cx="6.54" cy="6.54" r="6.54" transform="matrix(-1 0 0 1 200.56 78.48)" fill="#979797"/>
<circle cx="6.54" cy="6.54" r="6.54" transform="matrix(-1 0 0 1 161.32 78.48)" fill="#979797"/>
<circle cx="6.54" cy="6.54" r="6.54" transform="matrix(-1 0 0 1 122.08 78.48)" fill="#979797"/>
<circle cx="6.54" cy="6.54" r="6.54" transform="matrix(-1 0 0 1 82.84 78.48)" fill="#979797"/>
<circle cx="6.54" cy="6.54" r="6.54" transform="matrix(-1 0 0 1 43.6 78.48)" fill="#979797"/>
</g>
<g clip-path="url(#clip2_7_2)">
<circle cx="6.54" cy="6.54" r="6.54" transform="matrix(-1 0 0 1 200.56 117.72)" fill="#979797"/>
<circle cx="6.54" cy="6.54" r="6.54" transform="matrix(-1 0 0 1 161.32 117.72)" fill="#979797"/>
<circle cx="6.54" cy="6.54" r="6.54" transform="matrix(-1 0 0 1 122.08 117.72)" fill="#979797"/>
<circle cx="6.54" cy="6.54" r="6.54" transform="matrix(-1 0 0 1 82.84 117.72)" fill="#979797"/>
<circle cx="6.54" cy="6.54" r="6.54" transform="matrix(-1 0 0 1 43.6 117.72)" fill="#979797"/>
</g>
<g clip-path="url(#clip3_7_2)">
<circle cx="6.54" cy="6.54" r="6.54" transform="matrix(-1 0 0 1 200.56 156.96)" fill="#979797"/>
<circle cx="6.54" cy="6.54" r="6.54" transform="matrix(-1 0 0 1 161.32 156.96)" fill="#979797"/>
<circle cx="6.54" cy="6.54" r="6.54" transform="matrix(-1 0 0 1 122.08 156.96)" fill="#979797"/>
<circle cx="6.54" cy="6.54" r="6.54" transform="matrix(-1 0 0 1 82.84 156.96)" fill="#979797"/>
<circle cx="6.54" cy="6.54" r="6.54" transform="matrix(-1 0 0 1 43.6 156.96)" fill="#979797"/>
</g>
<g clip-path="url(#clip4_7_2)">
<circle cx="6.54" cy="6.54" r="6.54" transform="matrix(-1 0 0 1 200.56 196.2)" fill="#979797"/>
<circle cx="6.54" cy="6.54" r="6.54" transform="matrix(-1 0 0 1 161.32 196.2)" fill="#979797"/>
<circle cx="6.54" cy="6.54" r="6.54" transform="matrix(-1 0 0 1 122.08 196.2)" fill="#979797"/>
<circle cx="6.54" cy="6.54" r="6.54" transform="matrix(-1 0 0 1 82.84 196.2)" fill="#979797"/>
<circle cx="6.54" cy="6.54" r="6.54" transform="matrix(-1 0 0 1 43.6 196.2)" fill="#979797"/>
</g>
<g clip-path="url(#clip5_7_2)">
<circle opacity="0.75" cx="6.54" cy="6.54" r="6.54" transform="matrix(-1 0 0 1 200.56 235.44)" fill="#979797"/>
<circle opacity="0.75" cx="6.54" cy="6.54" r="6.54" transform="matrix(-1 0 0 1 161.32 235.44)" fill="#979797"/>
<circle cx="6.54" cy="6.54" r="6.54" transform="matrix(-1 0 0 1 122.08 235.44)" fill="#979797"/>
<circle cx="6.54" cy="6.54" r="6.54" transform="matrix(-1 0 0 1 82.84 235.44)" fill="#979797"/>
<circle cx="6.54" cy="6.54" r="6.54" transform="matrix(-1 0 0 1 43.6 235.44)" fill="#979797"/>
</g>
<g clip-path="url(#clip6_7_2)">
<circle opacity="0.5" cx="6.54" cy="6.54" r="6.54" transform="matrix(-1 0 0 1 200.56 274.68)" fill="#979797"/>
<circle opacity="0.75" cx="6.54" cy="6.54" r="6.54" transform="matrix(-1 0 0 1 161.32 274.68)" fill="#979797"/>
<circle cx="6.54" cy="6.54" r="6.54" transform="matrix(-1 0 0 1 122.08 274.68)" fill="#979797"/>
<circle cx="6.54" cy="6.54" r="6.54" transform="matrix(-1 0 0 1 82.84 274.68)" fill="#979797"/>
<circle cx="6.54" cy="6.54" r="6.54" transform="matrix(-1 0 0 1 43.6 274.68)" fill="#979797"/>
</g>
<g clip-path="url(#clip7_7_2)">
<circle opacity="0.5" cx="6.54" cy="6.54" r="6.54" transform="matrix(-1 0 0 1 200.56 313.92)" fill="#979797"/>
<circle opacity="0.75" cx="6.54" cy="6.54" r="6.54" transform="matrix(-1 0 0 1 161.32 313.92)" fill="#979797"/>
<circle cx="6.54" cy="6.54" r="6.54" transform="matrix(-1 0 0 1 122.08 313.92)" fill="#979797"/>
<circle cx="6.54" cy="6.54" r="6.54" transform="matrix(-1 0 0 1 82.84 313.92)" fill="#979797"/>
<circle cx="6.54" cy="6.54" r="6.54" transform="matrix(-1 0 0 1 43.6 313.92)" fill="#979797"/>
</g>
<g clip-path="url(#clip8_7_2)">
<circle opacity="0.5" cx="6.54" cy="6.54" r="6.54" transform="matrix(-1 0 0 1 200.56 353.16)" fill="#979797"/>
<circle opacity="0.75" cx="6.54" cy="6.54" r="6.54" transform="matrix(-1 0 0 1 161.32 353.16)" fill="#979797"/>
<circle cx="6.54" cy="6.54" r="6.54" transform="matrix(-1 0 0 1 122.08 353.16)" fill="#979797"/>
<circle cx="6.54" cy="6.54" r="6.54" transform="matrix(-1 0 0 1 82.84 353.16)" fill="#979797"/>
<circle cx="6.54" cy="6.54" r="6.54" transform="matrix(-1 0 0 1 43.6 353.16)" fill="#979797"/>
</g>
<g clip-path="url(#clip9_7_2)">
<circle opacity="0.5" cx="6.54" cy="6.54" r="6.54" transform="matrix(-1 0 0 1 200.56 392.4)" fill="#979797"/>
<circle opacity="0.75" cx="6.54" cy="6.54" r="6.54" transform="matrix(-1 0 0 1 161.32 392.4)" fill="#979797"/>
<circle cx="6.54" cy="6.54" r="6.54" transform="matrix(-1 0 0 1 122.08 392.4)" fill="#979797"/>
<circle cx="6.54" cy="6.54" r="6.54" transform="matrix(-1 0 0 1 82.84 392.4)" fill="#979797"/>
<circle cx="6.54" cy="6.54" r="6.54" transform="matrix(-1 0 0 1 43.6 392.4)" fill="#979797"/>
</g>
<defs>
<clipPath id="clip0_7_2">
<rect width="436" height="39.24" fill="white" transform="matrix(-1 0 0 1 436 39.24)"/>
</clipPath>
<clipPath id="clip1_7_2">
<rect width="436" height="39.24" fill="white" transform="matrix(-1 0 0 1 436 78.48)"/>
</clipPath>
<clipPath id="clip2_7_2">
<rect width="436" height="39.24" fill="white" transform="matrix(-1 0 0 1 436 117.72)"/>
</clipPath>
<clipPath id="clip3_7_2">
<rect width="436" height="39.24" fill="white" transform="matrix(-1 0 0 1 436 156.96)"/>
</clipPath>
<clipPath id="clip4_7_2">
<rect width="436" height="39.24" fill="white" transform="matrix(-1 0 0 1 436 196.2)"/>
</clipPath>
<clipPath id="clip5_7_2">
<rect width="436" height="39.24" fill="white" transform="matrix(-1 0 0 1 436 235.44)"/>
</clipPath>
<clipPath id="clip6_7_2">
<rect width="436" height="39.24" fill="white" transform="matrix(-1 0 0 1 436 274.68)"/>
</clipPath>
<clipPath id="clip7_7_2">
<rect width="436" height="39.24" fill="white" transform="matrix(-1 0 0 1 436 313.92)"/>
</clipPath>
<clipPath id="clip8_7_2">
<rect width="436" height="39.24" fill="white" transform="matrix(-1 0 0 1 436 353.16)"/>
</clipPath>
<clipPath id="clip9_7_2">
<rect width="436" height="39.24" fill="white" transform="matrix(-1 0 0 1 436 392.4)"/>
</clipPath>
</defs>
</svg>
