<svg width="178" height="249" viewBox="0 0 178 249" fill="none" xmlns="http://www.w3.org/2000/svg">
<path d="M178.818 1.43125C179.616 -0.45822 182.401 -0.0667338 182.647 1.96929L196.115 113.647C196.247 114.747 197.248 115.529 198.348 115.392L312.98 101.105C315.039 100.848 316.078 103.511 314.389 104.717L221.776 170.832C220.844 171.497 220.66 172.807 221.373 173.704L292.174 262.785C293.466 264.41 291.733 266.683 289.824 265.869L183.57 220.538C182.552 220.103 181.374 220.579 180.943 221.6L137.214 325.239C136.417 327.129 133.631 326.737 133.386 324.701L119.918 213.023C119.785 211.923 118.784 211.141 117.685 211.278L3.0527 225.566C0.993024 225.822 -0.0460304 223.159 1.64329 221.953L94.256 155.839C95.1879 155.173 95.3721 153.863 94.6596 152.967L23.8583 63.8856C22.5668 62.2607 24.2997 59.9871 26.2088 60.8016L132.462 106.133C133.481 106.567 134.659 106.091 135.089 105.071L178.818 1.43125Z" fill="#A0CBAD"/>
</svg>
