<svg width="317" height="402" viewBox="0 0 317 402" fill="none" xmlns="http://www.w3.org/2000/svg">
<path d="M169.052 8.3792C169.532 6.31639 172.468 6.31639 172.948 8.3792L193.877 98.4033C194.139 99.5278 195.295 100.198 196.401 99.8658L288.564 72.1675C290.625 71.548 292.076 74.1759 290.454 75.5905L219.449 137.492C218.535 138.29 218.535 139.71 219.449 140.508L290.454 202.41C292.076 203.824 290.625 206.452 288.564 205.832L196.401 178.134C195.295 177.802 194.139 178.472 193.877 179.597L172.948 269.621C172.468 271.684 169.532 271.684 169.052 269.621L148.123 179.597C147.861 178.472 146.705 177.802 145.599 178.134L53.4362 205.832C51.3747 206.452 49.9238 203.824 51.5463 202.41L122.551 140.508C123.465 139.71 123.465 138.29 122.551 137.492L51.5463 75.5904C49.9238 74.1759 51.3747 71.548 53.4362 72.1675L145.599 99.8658C146.705 100.198 147.861 99.5278 148.123 98.4033L169.052 8.3792Z" fill="#A0CBAD"/>
<path d="M33.2957 287.787C33.7503 284.304 38.7907 284.304 39.2453 287.787L43.7232 322.088C43.8914 323.376 44.8699 324.41 46.1472 324.649L77.7509 330.551C81.0165 331.161 81.0165 335.839 77.7509 336.449L46.1472 342.351C44.8699 342.59 43.8914 343.624 43.7232 344.912L39.2452 379.213C38.7907 382.696 33.7503 382.696 33.2957 379.213L28.8178 344.912C28.6496 343.624 27.671 342.59 26.3938 342.351L-5.20989 336.449C-8.47553 335.839 -8.47553 331.161 -5.20988 330.551L26.3938 324.649C27.671 324.41 28.6496 323.376 28.8178 322.088L33.2957 287.787Z" fill="#FCC560"/>
</svg>
