<svg width="325" height="495" viewBox="0 0 325 495" fill="none" xmlns="http://www.w3.org/2000/svg">
<path d="M284.008 341.037C284.285 337.335 289.715 337.335 289.992 341.037L292.55 375.281C292.739 377.806 295.778 378.976 297.611 377.229L321.853 354.137C324.517 351.6 328.529 355.162 326.324 358.108L304.744 386.928C303.34 388.803 304.53 391.491 306.861 391.713L341.583 395.013C345.204 395.358 345.204 400.642 341.583 400.987L306.861 404.287C304.53 404.509 303.34 407.197 304.744 409.072L326.324 437.892C328.529 440.838 324.517 444.4 321.853 441.863L297.611 418.771C295.778 417.024 292.739 418.194 292.55 420.719L289.992 454.963C289.715 458.665 284.285 458.665 284.008 454.963L281.45 420.719C281.261 418.194 278.222 417.024 276.389 418.771L252.147 441.863C249.483 444.4 245.471 440.838 247.676 437.892L269.256 409.072C270.66 407.197 269.47 404.509 267.139 404.287L232.417 400.987C228.796 400.642 228.796 395.358 232.417 395.013L267.139 391.713C269.47 391.491 270.66 388.803 269.256 386.928L247.676 358.108C245.471 355.162 249.483 351.6 252.147 354.137L276.389 377.229C278.222 378.976 281.261 377.806 281.45 375.281L284.008 341.037Z" fill="#A0CBAD"/>
<path d="M287.296 22.7866C287.75 19.3044 292.791 19.3044 293.245 22.7866L297.723 57.0879C297.891 58.3764 298.87 59.4101 300.147 59.6486L331.751 65.551C335.017 66.1609 335.017 70.8391 331.751 71.449L300.147 77.3514C298.87 77.5899 297.891 78.6236 297.723 79.9121L293.245 114.213C292.791 117.696 287.75 117.696 287.296 114.213L282.818 79.9121C282.65 78.6236 281.671 77.5899 280.394 77.3514L248.79 71.449C245.524 70.8391 245.524 66.1609 248.79 65.551L280.394 59.6486C281.671 59.4101 282.65 58.3764 282.818 57.0879L287.296 22.7866Z" fill="#FCC560"/>
<path d="M133.182 68.3657C134.537 63.4813 141.463 63.4814 142.818 68.3657L161.251 134.804C161.98 137.431 164.68 138.99 167.32 138.308L237.943 120.057C242.996 118.751 246.419 125.087 242.558 128.597L191.196 175.301C189.015 177.284 189.015 180.716 191.196 182.699L242.558 229.403C246.419 232.913 242.996 239.249 237.943 237.943L167.32 219.692C164.68 219.01 161.98 220.569 161.251 223.196L142.818 289.634C141.463 294.519 134.537 294.519 133.182 289.634L114.749 223.196C114.02 220.569 111.32 219.01 108.68 219.692L38.0568 237.943C33.0044 239.249 29.5811 232.913 33.4419 229.403L84.8037 182.699C86.9853 180.716 86.9853 177.284 84.8037 175.301L33.4419 128.597C29.5811 125.087 33.0044 118.751 38.0568 120.057L108.68 138.308C111.32 138.99 114.02 137.431 114.749 134.804L133.182 68.3657Z" fill="#8FB1BE"/>
<path d="M329.008 180.1C329.227 177.672 332.773 177.672 332.992 180.1L336.606 220.201C336.714 221.394 337.839 222.225 339.011 221.978L380.761 213.164C383.189 212.651 384.193 216.144 381.862 216.998L342.827 231.305C341.598 231.756 341.126 233.246 341.872 234.322L364.737 267.322C366.136 269.341 363.367 271.617 361.657 269.853L332.436 239.705C331.65 238.894 330.35 238.894 329.564 239.705L300.343 269.853C298.633 271.617 295.864 269.341 297.263 267.322L320.128 234.322C320.874 233.246 320.402 231.756 319.173 231.305L280.138 216.998C277.807 216.144 278.811 212.651 281.239 213.164L322.989 221.978C324.161 222.225 325.286 221.394 325.394 220.201L329.008 180.1Z" fill="#D53302"/>
</svg>
