<svg width="164" height="212" viewBox="0 0 164 212" fill="none" xmlns="http://www.w3.org/2000/svg">
<path d="M129.042 4.00759C130.122 -0.785564 137.221 0.212125 136.937 5.11722L131.123 105.805C130.983 108.241 133.037 110.235 135.468 110.02L237.714 100.993C242.631 100.559 243.819 107.674 239.028 108.86L140 133.389C137.577 133.99 136.289 136.639 137.315 138.916L178.793 230.922C180.816 235.409 174.522 238.877 171.809 234.771L115.618 149.713C114.292 147.706 111.507 147.315 109.68 148.878L32.2204 215.153C28.4803 218.353 23.3863 213.284 26.5677 209.528L91.7987 132.519C93.4127 130.613 92.9056 127.711 90.7412 126.466L2.31113 75.5921C-1.96722 73.1307 1.13564 66.6192 5.74224 68.3917L101.539 105.251C103.817 106.128 106.341 104.778 106.878 102.397L129.042 4.00759Z" fill="#D53302"/>
</svg>
